<?xml version="1.0" encoding="utf-8"?>
<!-- Generator: Adobe Illustrator 24.0.0, SVG Export Plug-In . SVG Version: 6.00 Build 0)  -->
<!DOCTYPE svg PUBLIC "-//W3C//DTD SVG 1.1//EN" "http://www.w3.org/Graphics/SVG/1.1/DTD/svg11.dtd" [
	<!ENTITY ns_extend "http://ns.adobe.com/Extensibility/1.0/">
	<!ENTITY ns_ai "http://ns.adobe.com/AdobeIllustrator/10.0/">
	<!ENTITY ns_graphs "http://ns.adobe.com/Graphs/1.0/">
	<!ENTITY ns_vars "http://ns.adobe.com/Variables/1.0/">
	<!ENTITY ns_imrep "http://ns.adobe.com/ImageReplacement/1.0/">
	<!ENTITY ns_sfw "http://ns.adobe.com/SaveForWeb/1.0/">
	<!ENTITY ns_custom "http://ns.adobe.com/GenericCustomNamespace/1.0/">
	<!ENTITY ns_adobe_xpath "http://ns.adobe.com/XPath/1.0/">
]>
<svg version="1.1"
	 id="Layer_1" xmlns:x="&ns_extend;" xmlns:i="&ns_ai;" xmlns:graph="&ns_graphs;" xmlns:svgjs="http://svgjs.com/svgjs"
	 xmlns="http://www.w3.org/2000/svg" xmlns:xlink="http://www.w3.org/1999/xlink" x="0px" y="0px" viewBox="0 0 512 512"
	 style="enable-background:new 0 0 512 512;" xml:space="preserve">
<style type="text/css">
	.st0{fill:#0139DF;}
	.st1{fill:#020066;}
</style>
<metadata>
	<sfw  xmlns="&ns_sfw;">
		<slices></slices>
		<sliceSourceBounds  bottomLeftOrigin="true" height="451.8" width="512" x="0" y="30.1"></sliceSourceBounds>
	</sfw>
</metadata>
<g>
	<polygon class="st0" points="438.5,345 120.1,345 65.3,71.2 0,71.2 0,30.1 99,30.1 153.7,303.9 410.3,303.9 473.7,139.1 512,153.9 
			"/>
	<path class="st0" d="M191.7,481.9c-34,0-61.6-27.6-61.6-61.6s27.6-61.6,61.6-61.6s61.6,27.6,61.6,61.6S225.6,481.9,191.7,481.9z
		 M191.7,399.7c-11.3,0-20.5,9.2-20.5,20.5s9.2,20.5,20.5,20.5s20.5-9.2,20.5-20.5C212.2,409,203,399.7,191.7,399.7z"/>
	<path class="st1" d="M369.6,481.9c-34,0-61.6-27.6-61.6-61.6s27.6-61.6,61.6-61.6s61.6,27.6,61.6,61.6S403.6,481.9,369.6,481.9z
		 M369.6,399.7c-11.3,0-20.5,9.2-20.5,20.5s9.2,20.5,20.5,20.5s20.5-9.2,20.5-20.5C390.2,409,380.9,399.7,369.6,399.7z"/>
	<path class="st0" d="M383.3,149.3c0,16.3-2.4,31.2-7.2,44.9c-4.8,13.7-11.5,25.5-20,35.5c-8.5,10-18.6,17.7-30.3,23.3
		c-11.7,5.5-24.3,8.3-37.9,8.3c-13.8,0-26.5-2.8-38.1-8.3c-11.6-5.5-21.6-13.3-30.1-23.3c-8.5-10-15.2-21.8-20-35.5
		c-4.8-13.7-7.2-28.6-7.2-44.9s2.4-31.2,7.2-44.9s11.5-25.5,20-35.5c8.5-10,18.5-17.8,30.1-23.5c11.6-5.7,24.3-8.5,38.1-8.5
		c13.5,0,26.2,2.8,37.9,8.5c11.7,5.7,21.8,13.5,30.3,23.5c8.5,10,15.2,21.8,20,35.5C380.9,118.1,383.3,133.1,383.3,149.3z
		 M333.4,149.3c0-9.9-1.1-18.9-3.3-27.2c-2.2-8.3-5.4-15.3-9.4-21.3c-4.1-5.9-8.9-10.5-14.4-13.7c-5.5-3.2-11.6-4.8-18.3-4.8
		c-6.9,0-13.1,1.6-18.7,4.8c-5.5,3.2-10.4,7.8-14.4,13.7c-4.1,5.9-7.2,13-9.4,21.3c-2.2,8.3-3.3,17.3-3.3,27.2
		c0,9.9,1.1,18.9,3.3,27s5.4,15.2,9.4,21.1c4.1,5.9,8.9,10.5,14.4,13.7c5.5,3.2,11.8,4.8,18.7,4.8c6.7,0,12.8-1.6,18.3-4.8
		c5.5-3.2,10.4-7.8,14.4-13.7c4.1-5.9,7.2-12.9,9.4-21.1C332.3,168.2,333.4,159.2,333.4,149.3z"/>
	<polygon class="st1" points="473.7,139.1 410.3,303.9 287.5,303.9 287.5,345 438.5,345 512,153.9 	"/>
	<path class="st1" d="M376.1,104.4c-4.8-13.7-11.5-25.5-20-35.5c-8.5-10-18.6-17.8-30.3-23.5C314.1,39.8,301.5,37,288,37
		c-0.2,0-0.3,0-0.5,0v45.5c0.2,0,0.3,0,0.5,0c6.7,0,12.8,1.6,18.3,4.8c5.5,3.2,10.4,7.8,14.4,13.7s7.2,13,9.4,21.3
		c2.2,8.3,3.3,17.3,3.3,27.2c0,9.9-1.1,18.9-3.3,27s-5.4,15.2-9.4,21.1c-4.1,5.9-8.9,10.5-14.4,13.7c-5.5,3.2-11.6,4.8-18.3,4.8
		c-0.2,0-0.3,0-0.5,0v45.5c0.2,0,0.3,0,0.5,0c13.5,0,26.2-2.8,37.9-8.3c11.7-5.5,21.8-13.3,30.3-23.3c8.5-10,15.2-21.8,20-35.5
		c4.8-13.7,7.2-28.6,7.2-44.9C383.3,133.1,380.9,118.1,376.1,104.4z"/>
</g>
</svg>
