<?xml version="1.0" encoding="utf-8"?>
<!-- Generator: Adobe Illustrator 24.0.0, SVG Export Plug-In . SVG Version: 6.00 Build 0)  -->
<!DOCTYPE svg PUBLIC "-//W3C//DTD SVG 1.1//EN" "http://www.w3.org/Graphics/SVG/1.1/DTD/svg11.dtd" [
	<!ENTITY ns_extend "http://ns.adobe.com/Extensibility/1.0/">
	<!ENTITY ns_ai "http://ns.adobe.com/AdobeIllustrator/10.0/">
	<!ENTITY ns_graphs "http://ns.adobe.com/Graphs/1.0/">
	<!ENTITY ns_vars "http://ns.adobe.com/Variables/1.0/">
	<!ENTITY ns_imrep "http://ns.adobe.com/ImageReplacement/1.0/">
	<!ENTITY ns_sfw "http://ns.adobe.com/SaveForWeb/1.0/">
	<!ENTITY ns_custom "http://ns.adobe.com/GenericCustomNamespace/1.0/">
	<!ENTITY ns_adobe_xpath "http://ns.adobe.com/XPath/1.0/">
]>
<svg version="1.1" id="Layer_1" xmlns:x="&ns_extend;" xmlns:i="&ns_ai;" xmlns:graph="&ns_graphs;"
	 xmlns="http://www.w3.org/2000/svg" xmlns:xlink="http://www.w3.org/1999/xlink" x="0px" y="0px" viewBox="0 0 500 500"
	 style="enable-background:new 0 0 500 500;" xml:space="preserve">
<style type="text/css">
	.st0{fill:#A6A6A6;}
	.st1{fill:#DBDBDB;}
	.st2{fill:#EBEBEB;}
	.st3{fill:#263238;}
	.st4{fill:#FFCC00;}
	.st5{fill:#DD6A57;}
	.st6{fill:#37474F;}
	.st7{fill:#455A64;}
	.st8{fill:#FFFFFF;}
	.st9{fill:#FF99BA;}
	.st10{opacity:0.3;}
</style>
<metadata>
	<sfw  xmlns="&ns_sfw;">
		<slices></slices>
		<sliceSourceBounds  bottomLeftOrigin="true" height="327" width="452.1" x="24" y="84.7"></sliceSourceBounds>
	</sfw>
</metadata>
<g id="freepik--background-complete--inject-55">
	<path class="st0" d="M99.4,299.2c-13.7,13.4-16,34.1-13.1,52.3c0.1,0.4,0.7,0.3,0.7-0.1c0-4.1-0.1-8.2-0.1-12.3
		c0.1-0.2,0.1-0.4,0.2-0.5c3.6-2.6,6.9-5.5,8.9-9.5c2.3-4.5,3.2-9.6,4.9-14.3c0.2-0.5-0.3-0.3-0.6-0.1c-8.3,6.1-11,12.7-13.4,21.6
		c0-4.6,0.5-9.2,1.4-13.7c1.8-8.4,5.3-16.7,11.4-22.9c0.1-0.1,0.1-0.3,0-0.4S99.5,299.1,99.4,299.2L99.4,299.2z"/>
	<path class="st1" d="M102,300.8c2.3,0.1,3.8,3.8,5.7,4.9c0.8,0.6,1.9,0.5,2.5-0.3c0,0,0.1-0.1,0.1-0.2c1.8-2.5-0.7-5.7-3-7.4
		c1.7,0.7,3.1,1.9,4.9,2.3c0.9,0.3,1.9-0.2,2.1-1.1c0-0.1,0-0.1,0.1-0.2c0.8-3.5-3.5-5-6.5-5.1c1.4-1,5.6-3.7,3.4-5.1
		s-7.1,2.5-8.7,3.8c-2.3,1.9-5.1,4.7-5.2,7.7C97.2,303.6,100.2,301.5,102,300.8z"/>
	<path class="st2" d="M101.3,301.3c3-1.4,8.8,0.6,9.3-0.5c1-2.3-3.6-3.9-6.1-4.2c2.3-0.6,6.7-1.6,6.6-3.8c-0.2-2.7-6.8-0.4-10.1,2.2
		c-4.2,3.2-4.2,6.3-3.5,7C98.4,302.7,100.8,301.6,101.3,301.3z"/>
	<path class="st0" d="M68.2,297.9c14.2,12.9,17.3,33.5,15.1,51.7c0,0.4-0.7,0.3-0.7-0.1c-0.2-4.1-0.2-8.2-0.4-12.3l-0.2-0.5
		c-3.7-2.5-7.1-5.3-9.2-9.2c-2.5-4.4-3.6-9.4-5.5-14.1c-0.2-0.4,0.3-0.3,0.6-0.1c8.6,5.8,11.5,12.3,14.2,21c-0.2-4.6-0.9-9.2-2-13.7
		c-2.1-8.3-6-16.5-12.2-22.4C67.7,298,68,297.6,68.2,297.9z"/>
	<path class="st1" d="M65.7,299.5c-2.3,0.2-3.7,4-5.5,5.1c-0.7,0.6-1.8,0.6-2.5-0.2c0-0.1-0.1-0.1-0.1-0.2c-1.9-2.5,0.5-5.7,2.7-7.5
		c-1.7,0.8-3,2-4.8,2.4c-0.9,0.3-1.9-0.1-2.2-1c0-0.1-0.1-0.2-0.1-0.3c-0.9-3.4,3.3-5.1,6.3-5.3c-1.5-0.9-5.7-3.5-3.6-4.9
		s7.2,2.3,8.8,3.5c2.4,1.8,5.3,4.5,5.5,7.5C70.7,302.2,67.6,300.2,65.7,299.5z"/>
	<path class="st2" d="M66.4,300.1c-3-1.3-8.8,0.9-9.3-0.2c-1.1-2.3,3.5-4,6-4.5c-2.3-0.5-6.8-1.4-6.7-3.6c0.1-2.7,6.7-0.6,10.2,1.8
		c4.3,3.1,4.4,6.2,3.7,6.8C69.4,301.4,66.9,300.3,66.4,300.1z"/>
	<path class="st0" d="M82.7,331.8c1,6.9,2.4,13.7,4.4,20.3c0.1,0.3,0.3,0.4,0.6,0.4c0.3-0.1,0.4-0.3,0.4-0.6
		c-0.9-6.3-2.6-12.4-3.6-18.7c-1-6.3-1.4-12.8-1.1-19.2c0.6-10.6,3.5-21.8,10.3-30.1c0.2-0.2-0.2-0.5-0.3-0.3
		c-13.8,16.1-11.6,35.8-11.6,37.6c-2-6.7-4-14.3-11.4-21.1c-0.3-0.3-0.6-0.1-0.5,0.4C71.4,313,74.8,319.4,82,326
		C82.2,328,82.4,329.9,82.7,331.8z"/>
	<path class="st1" d="M94,285.9c2.5-1.1,5.9,2.1,8.4,2.3c1.1,0.3,2.2-0.4,2.4-1.4c0-0.1,0-0.2,0.1-0.3c0.6-3.5-3.6-5.5-6.9-6.2
		c2.1-0.1,4.1,0.4,6.2-0.1c1.1-0.2,1.8-1.2,1.7-2.3c0-0.1,0-0.1,0-0.2c-0.9-4-6.2-3.4-9.3-2c1-1.8,3.9-6.7,1-7s-6.1,6.2-7.1,8.3
		c-1.5,3.1-2.9,7.5-1.6,10.6C90.4,291.3,92.4,287.6,94,285.9z"/>
	<path class="st2" d="M93.6,286.8c2.4-2.9,9.4-3.8,9.4-5.2c-0.1-2.9-5.7-2.2-8.5-1.3c2.1-1.8,6.1-5,4.9-7.3c-1.5-2.7-7.2,3-9.4,7.3
		c-2.7,5.5-1.1,8.7-0.1,9C91.3,289.7,93.2,287.3,93.6,286.8z"/>
	<path class="st1" d="M73.7,335.6l-6.1,46.5h37c-0.8-4.1-7.7-46.5-7.7-46.5L73.7,335.6z"/>
	<rect x="434.8" y="188.4" class="st2" width="26.5" height="11.2"/>
	<rect x="449.6" y="174.3" class="st2" width="26.5" height="11.2"/>
	<rect x="420" y="174.3" class="st2" width="26.5" height="11.2"/>
	<rect x="38.7" y="332.8" class="st2" width="26.5" height="11.2"/>
	<rect x="24" y="318.6" class="st2" width="26.5" height="11.2"/>
	<rect x="449.6" y="332.8" class="st2" width="26.5" height="11.2"/>
	<rect x="112.4" y="95.3" class="st2" width="26.5" height="11.2"/>
	<rect x="97.7" y="109.4" class="st2" width="26.5" height="11.2"/>
</g>
<g id="freepik--Table--inject-55">
	<polygon class="st3" points="58,382 106,381.8 154,381.7 250,381.5 346,381.7 394,381.8 442,382 394,382.3 346,382.4 250,382.5 
		154,382.4 106,382.3 	"/>
</g>
<g id="freepik--error-404--inject-55">
	<path class="st4" d="M167.7,107.5c0,0.9-0.7,1.6-1.6,1.6c-0.9,0-1.6-0.7-1.6-1.6c0,0,0,0,0,0V90.6c0-0.5,0.2-1,0.6-1.3
		c0.7-0.5,1.7-0.3,2.2,0.3l9.4,13v-12c0-0.9,0.7-1.5,1.6-1.6c0.9,0,1.6,0.7,1.6,1.6v16.8c0,0.9-0.7,1.6-1.6,1.6
		c-0.5,0-0.9-0.2-1.2-0.6c-0.1-0.1-0.1-0.1-0.1-0.2l-9.3-12.9L167.7,107.5z"/>
	<path class="st4" d="M201.5,91.3c3.9,4.1,3.9,10.6,0,14.7c-1.8,2-4.3,3.1-6.9,3.1c-2.7,0-5.3-1.1-7.1-3.1c-3.8-4.1-3.8-10.5,0-14.7
		c1.8-2,4.4-3.1,7.1-3.1C197.2,88.3,199.7,89.4,201.5,91.3z M201.1,98.7c0-1.9-0.7-3.7-2-5.1c-2.3-2.6-6.3-2.8-8.8-0.4
		c-0.2,0.1-0.3,0.3-0.4,0.4c-1.3,1.4-2,3.2-2,5.1c0,1.9,0.7,3.7,2,5.1c2.3,2.6,6.2,2.8,8.8,0.5c0.2-0.2,0.4-0.3,0.5-0.5
		C200.4,102.3,201,100.5,201.1,98.7L201.1,98.7z"/>
	<path class="st4" d="M220.8,92h-4.6v15.5c0,0.9-0.7,1.6-1.5,1.6c0,0,0,0-0.1,0c-0.9,0-1.6-0.7-1.6-1.6V92h-4.6
		c-0.9,0-1.6-0.7-1.6-1.6c0,0,0,0,0,0c0-0.9,0.7-1.6,1.5-1.6c0,0,0,0,0.1,0h12.4c0.9,0,1.6,0.7,1.6,1.6c0,0,0,0,0,0
		C222.4,91.3,221.7,92,220.8,92z"/>
	<path class="st4" d="M235.9,107.5V90.4c0-0.9,0.7-1.6,1.6-1.6l0,0h9.5c0.9,0,1.6,0.7,1.6,1.6S247.9,92,247,92l0,0h-7.8v5.3h6.8
		c0.9,0,1.6,0.7,1.6,1.6s-0.7,1.6-1.6,1.6l0,0h-6.8v6.9c0,0.9-0.7,1.6-1.6,1.6c0,0,0,0,0,0C236.6,109.1,235.9,108.4,235.9,107.5
		C235.9,107.5,235.9,107.5,235.9,107.5z"/>
	<path class="st4" d="M268.9,91.3c3.9,4.1,3.9,10.6,0,14.7c-1.8,2-4.3,3.1-6.9,3.1c-2.7,0-5.3-1.1-7.1-3.1c-3.8-4.1-3.8-10.5,0-14.7
		c1.8-2,4.4-3.1,7.1-3.1C264.6,88.3,267.1,89.4,268.9,91.3z M268.5,98.7c0-1.9-0.7-3.7-2-5.1c-2.3-2.6-6.3-2.8-8.8-0.4
		c-0.2,0.1-0.3,0.3-0.4,0.4c-1.3,1.4-2,3.2-2,5.1c0,1.9,0.7,3.7,2,5.1c2.3,2.6,6.2,2.8,8.8,0.5c0.2-0.2,0.4-0.3,0.5-0.5
		C267.8,102.4,268.5,100.5,268.5,98.7z"/>
	<path class="st4" d="M284.6,109.1c-4.6,0-8.4-3.7-8.4-8.3c0,0,0,0,0,0V90.4c0-0.9,0.7-1.6,1.5-1.6c0,0,0,0,0.1,0
		c0.9,0,1.6,0.7,1.6,1.6c0,0,0,0,0,0v10.3c0,2.8,2.3,5.2,5.2,5.2c2.9,0,5.2-2.3,5.2-5.2c0,0,0,0,0,0V90.4c0-0.9,0.7-1.6,1.6-1.6
		c0,0,0,0,0,0c0.9,0,1.6,0.7,1.6,1.5c0,0,0,0,0,0.1v10.3C293,105.4,289.3,109.1,284.6,109.1C284.6,109.1,284.6,109.1,284.6,109.1z"
		/>
	<path class="st4" d="M302.6,107.5c0,0.9-0.7,1.6-1.6,1.6c-0.9,0-1.6-0.7-1.6-1.6c0,0,0,0,0,0V90.6c0-0.5,0.2-1,0.6-1.3
		c0.7-0.5,1.7-0.3,2.2,0.3l9.4,13v-12c0-0.9,0.7-1.6,1.6-1.6c0.9,0,1.6,0.7,1.6,1.6v16.8c0,0.9-0.7,1.6-1.6,1.6
		c-0.5,0-0.9-0.2-1.2-0.6c-0.1-0.1-0.1-0.1-0.1-0.2l-9.3-12.9L302.6,107.5z"/>
	<path class="st4" d="M320.3,107.5V90.4c0-0.9,0.7-1.6,1.5-1.6c0,0,0,0,0.1,0h3.4c5.6,0,10.1,4.5,10.1,10.1
		c0,5.6-4.5,10.1-10.1,10.1h-3.4C321,109.1,320.3,108.4,320.3,107.5C320.3,107.5,320.3,107.5,320.3,107.5z M323.5,105.9h1.8
		c3.8-0.2,6.8-3.4,6.6-7.3c-0.2-3.6-3-6.5-6.6-6.6h-1.8V105.9z"/>
</g>
<g id="freepik--Character--inject-55">
	<path class="st3" d="M280.3,252.8c-0.1,0.5,0.2,0.9,0.6,1.1c1,0.2,2.3,0.3,3.8,0.5c4.2-9.2,8.5-16.4,7.3-13.6
		c-1.9,4.5-3.1,9.2-3.6,14.1c1.6,0.2,5.5,0.7,7.4,0.9c4.4-16.4,9.3-28.4,8.7-24.6c-2.3,15.3-1.9,20.2-1.4,25.6
		c17.9,2.2,41.5,4.8,58.5,6.2c2.8-9,5.4-18.8,5.6-18.1c1.9,5.4,1.8,12.9,1.4,18.7c5.4,0.4,9.8,0.7,12.5,0.7c0,0,2-7.6,2.4-10.1
		c1.1-6.4,1-13-0.2-19.5c-1.2-6.6-3.9-12.5-6.3-18.5c0,0,0-0.1,0-0.1l0,0c-1.6-4-2.8-8.1-3.5-12.3c0,0,0-0.1,0-0.1
		c-0.5-3.1-0.7-6.2-0.6-9.3c0.2-11.4-4.9-21.6-14.6-25.3c-16.5-16.9-39.3-9.1-45.7,5.1l0,0c-2.5,6.4-5,14.8-7.2,21.2l0,0
		c0,0,0,0,0,0.1l0,0c-0.8,2.5-1.8,5-2.9,7.4C296.6,214.4,285.2,220.3,280.3,252.8z"/>
	<path class="st3" d="M362.4,172.4c6.2,4.1,9.8,9.7,10,18.1c0.2,4.9,0,9.6,1.4,14.3c1.4,4.8,3.9,8.9,6.4,12.9
		c4.1,6.4,6.8,12.8,6.7,20.9s-1.2,18-4.5,25.5c0,0-0.1,0-0.1,0c2.8-7.6,3.8-18.4,3.3-26.7c-0.6-9.1-4.9-15.1-9.1-22.2
		c-3.4-5.7-5.3-12.2-5.5-18.8c-0.1-4.1,0.3-8.4-0.9-12.3c-1.4-4.7-4.8-7.9-8.2-10.8C361.4,172.8,361.9,172.1,362.4,172.4z"/>
	<path class="st3" d="M290.4,214.8c5.2-6.1,10.5-11.2,13.9-19c3.1-7.1,5.2-14.7,8.4-21.7c0-0.1,0.2-0.1,0.2,0.1
		c-5,12.6-6.9,25.5-15.7,35.8c-4.8,5.6-9.5,10.7-12.9,17.6c-3.5,7.2-5.7,15-6.5,23c0,0.3-0.4,0.2-0.4,0
		C277.4,237.5,282,224.8,290.4,214.8z"/>
	<path class="st5" d="M240,370c0,0,48.3,13,56.3,11.6s34.9-37.7,40.9-50.8s15.9-78.6,14-85.8s-11.9-7.3-20.3,11.3
		s-28.4,59.4-31.9,62.7S236.1,366.5,240,370z"/>
	<path class="st5" d="M292.1,377.3c-7.4-3.9-16.4-13.3-22.5-14.2c-3.1-0.6-6.2,0.9-7.7,3.7c0,0-2.8-6.3-8.5-6.2
		c-2.9,0-5.5,4.7-5.5,4.7s-2.5-4.9-7.6-4.6c-4.1,0.3-6,5-6,5s-4.6-3.6-8.6-2c-8.2,3.2-9.5,38,3.1,43.9c5.9,2.7,5.7-5.8,5.7-5.8
		s3.1,12.2,10.3,12.7s6.3-10.6,6.3-10.6s3.1,11.8,10.6,11.5c7.8-0.3,5.1-11.2,5.1-11.2s4.9,7.9,10.6,6.4c9.4-2.5-0.7-21.3,1.4-28.9
		h11.8L292.1,377.3z"/>
	<path class="st5" d="M281.4,369.9c7.3,3.1,15.7-8.5,23.2-5.8c9.8,3.5,0.7,15.6-14.1,17.5h-11.8L281.4,369.9z"/>
	<path class="st3" d="M233.8,366.3C233.8,366.2,233.8,366.2,233.8,366.3c-0.1-0.1-0.2,0-0.2,0c-3.2,11.3-3.3,24.8,0.7,35.9
		c0.1,0.4,0.8,0.3,0.7-0.1C233.1,389.7,232.3,378.7,233.8,366.3z"/>
	<path class="st3" d="M247.7,365c0-0.1-0.2-0.2-0.3,0c-3.3,11.7-3,26.8,3.2,39.1c0.2,0.4,0.8,0.6,0.6,0.1
		C247.9,395.7,246.3,376.2,247.7,365z"/>
	<path class="st3" d="M267.5,404.8c-5.5-12-6.5-24.6-5.8-37.6c0-0.2-0.2-0.2-0.3,0c-2.1,6.3-1.7,14.7-0.9,21.1
		c0.7,6,2.9,11.8,6.5,16.7C267.2,405.2,267.6,405.1,267.5,404.8z"/>
	<path class="st3" d="M305.2,363.2c-4.8-1.6-9.7,2.2-13.8,4.4c-1.3,0.8-2.7,1.4-4.1,1.9c-3.2,1-5.6,0.4-7-0.5
		c-2.2-1.4-9.2-8.4-14.3-6.1c-1.7,0.8-3.2,2.1-4.3,3.7c-1.5-2.8-3.5-5.9-6.9-6.4c-1.5-0.3-3.1,0.1-4.3,1.1c-0.6,0.5-1.2,1.1-1.7,1.7
		c-0.5,0.6-0.9,1.2-1.2,1.9c0,0,0,0,0-0.1l-0.1-0.2l-0.2-0.4c-0.3-0.6-0.7-1.1-1.2-1.5c-0.2-0.2-0.5-0.3-0.7-0.3c0,0-0.1,0-0.1,0.1
		c0,0,0,0.1,0.1,0.1c0.2,0.1,0.4,0.3,0.5,0.5c0.2,0.2,0.3,0.5,0.5,0.7s0.3,0.5,0.5,0.7l0.3,0.4l0.1,0.2c0,0.1,0.1,0.1,0.2,0.2
		c0,0.1,0.1,0.1,0.2,0c0,0,0,0,0,0l0,0c0.5-0.5,1-1,1.4-1.5c0.5-0.6,1.1-1.1,1.7-1.6c1.2-0.9,2.7-1.3,4.1-1c3.1,0.6,5,3.3,6.6,5.8
		c0,0,0,0,0,0l0,0c0,0.1,0.1,0.1,0.1,0.1c1.7-1.5,3.3-3.1,5.6-3.5c2.5-0.4,4.9,0.8,6.9,2.1c1,0.6,2,1.3,3,2c0.9,0.7,1.7,1.4,2.6,2
		c3.9,2.5,8.1,0.5,9.2,0.1c2.1-0.9,4.1-2,6.1-3.2c2-1.3,4.2-2.2,6.5-2.6c2.2-0.3,4.4,0.5,5.8,2.2c0.7,0.9,1.7,2.7-0.3,6.7
		c0,0,0,0.1,0.1,0C308.2,371.7,311.4,365.2,305.2,363.2z"/>
	<path class="st6" d="M347.4,305.8l-45.5-7.3c0,0,21.8-43.1,34.8-55.6c12.9-12.3,19.2,0.3,17.3,19.4
		C351.8,283.4,347.4,305.8,347.4,305.8z"/>
	<path class="st3" d="M345.9,297.3c-1.3-0.3-2.6-0.5-3.9-0.8s-2.5-0.5-3.8-0.7c-2.6-0.4-5.1-0.8-7.7-1.1c-5.1-0.7-10.2-1.5-15.3-2
		c-2.9-0.3-5.8-0.8-8.7-1c-0.1,0-0.1,0.1,0,0.2c5,1.2,10.2,2,15.3,2.9s10.2,1.6,15.3,2.2c1.4,0.2,2.9,0.3,4.3,0.4s3,0.2,4.4,0.2
		c0.1,0,0.2-0.1,0.2-0.1C346,297.4,346,297.3,345.9,297.3L345.9,297.3z"/>
	<path class="st7" d="M322,382h120.6c0,0-50.1-124.4-75.6-142.6c-7.6-5.5-19.8-6.1-28.1,4.9c-6.7,9-25.5,44.8-26.3,57.6
		s9.2,25.6,9.2,25.6L322,382z"/>
	<path class="st8" d="M361.9,297.7c0.3-0.1,0.6-0.1,0.9-0.2c1-0.2,1.9,0.4,2.2,1.4c0,0.1,0,0.3,0,0.4c0,0.5,0.2,1,0.6,1.2
		c0.2,0.1,0.5,0.2,0.8,0.3c0.3,0,0.6,0.1,0.9,0.2c-0.3,0.1-0.6,0.1-0.9,0.2c-0.3,0.1-0.7,0-1-0.1c-0.7-0.3-1.1-1-1.1-1.7
		c0-0.5-0.3-0.9-0.7-1.2c-0.2-0.1-0.5-0.2-0.8-0.2C362.5,297.8,362.3,297.8,361.9,297.7z"/>
	<path class="st8" d="M315.8,297.7c0.3-0.1,0.6-0.1,0.9-0.2c1-0.2,1.9,0.4,2.2,1.4c0,0.1,0,0.3,0,0.4c0,0.5,0.2,1,0.6,1.2
		c0.2,0.1,0.5,0.2,0.8,0.3c0.3,0.1,0.6,0.1,0.9,0.2c-0.3,0.1-0.6,0.1-0.9,0.2c-0.3,0.1-0.7,0-1-0.1c-0.7-0.3-1.1-1-1.1-1.7
		c0-0.5-0.3-0.9-0.7-1.2c-0.2-0.1-0.5-0.2-0.8-0.2C316.4,297.8,316.1,297.8,315.8,297.7z"/>
	<path class="st8" d="M378.7,357.6c0.3-0.1,0.6-0.1,0.9-0.2c1-0.2,2,0.4,2.2,1.4c0,0.1,0,0.2,0,0.4c0,0.5,0.2,1,0.6,1.2
		c0.2,0.1,0.5,0.2,0.8,0.3c0.3,0.1,0.6,0.1,0.9,0.2c-0.3,0.1-0.6,0.1-0.9,0.2c-0.3,0.1-0.7,0-1-0.1c-0.7-0.3-1.1-1-1.1-1.7
		c0-0.5-0.3-0.9-0.7-1.2c-0.2-0.1-0.5-0.2-0.8-0.2C379.3,357.8,379,357.7,378.7,357.6z"/>
	<path class="st8" d="M399.6,300.9c0.3-0.1,0.6-0.1,0.9-0.2c1-0.2,1.9,0.4,2.2,1.4c0,0.1,0,0.3,0,0.4c0,0.5,0.2,1,0.6,1.2
		c0.2,0.1,0.5,0.2,0.8,0.3c0.3,0.1,0.6,0.1,0.9,0.2c-0.3,0.1-0.6,0.1-0.9,0.2c-0.3,0.1-0.7,0-1-0.1c-0.7-0.3-1.1-1-1.1-1.7
		c0-0.5-0.3-0.9-0.7-1.2c-0.2-0.1-0.5-0.2-0.8-0.2C400.2,301,399.9,301,399.6,300.9z"/>
	<path class="st8" d="M346.2,270.4c0.3-0.1,0.6-0.1,0.9-0.2c0.3-0.1,0.7,0,1,0.1c0.7,0.3,1.2,0.9,1.2,1.7c0,0.5,0.2,0.9,0.6,1.2
		c0.2,0.1,0.5,0.2,0.8,0.3c0.3,0.1,0.6,0.1,0.9,0.2c-0.3,0.1-0.6,0.1-0.9,0.2c-0.3,0.1-0.7,0-1-0.1c-0.7-0.3-1.2-1-1.1-1.8
		c0-0.5-0.3-0.9-0.7-1.2c-0.2-0.1-0.5-0.2-0.8-0.2C346.8,270.5,346.5,270.5,346.2,270.4z"/>
	<path class="st8" d="M379.1,269.7c0.3-0.1,0.6-0.1,0.9-0.2c0.3-0.1,0.7,0,1,0.1c0.7,0.3,1.2,0.9,1.2,1.7c0,0.5,0.2,1,0.6,1.2
		c0.2,0.1,0.5,0.2,0.8,0.3c0.3,0.1,0.6,0.1,0.9,0.2c-0.3,0.1-0.6,0.1-0.9,0.2c-0.3,0.1-0.7,0-1-0.1c-0.7-0.3-1.1-1-1.1-1.7
		c0-0.5-0.3-0.9-0.7-1.2c-0.2-0.1-0.5-0.2-0.8-0.2C379.7,269.9,379.4,269.8,379.1,269.7z"/>
	<path class="st8" d="M357.8,238.2c0.3-0.1,0.6-0.1,0.9-0.2c1-0.2,1.9,0.4,2.2,1.4c0,0.1,0,0.3,0,0.4c0,0.5,0.2,1,0.6,1.2
		c0.2,0.1,0.5,0.2,0.8,0.3c0.3,0.1,0.6,0.1,0.9,0.2c-0.3,0.1-0.6,0.1-0.9,0.2c-0.3,0.1-0.7,0-1-0.1c-0.7-0.3-1.1-1-1.1-1.7
		c0-0.5-0.3-0.9-0.7-1.2c-0.2-0.1-0.5-0.2-0.8-0.2C358.4,238.4,358.1,238.3,357.8,238.2z"/>
	<path class="st8" d="M338.2,322.8c0.3-0.1,0.6-0.1,0.9-0.2c0.3-0.1,0.7,0,1,0.1c0.7,0.3,1.2,0.9,1.2,1.7c0,0.5,0.2,1,0.6,1.2
		c0.2,0.1,0.5,0.2,0.8,0.3c0.3,0.1,0.6,0.1,0.9,0.2c-0.3,0.1-0.6,0.1-0.9,0.2c-0.3,0.1-0.7,0-1-0.1c-0.7-0.3-1.1-1-1.1-1.7
		c0-0.5-0.3-0.9-0.7-1.2c-0.2-0.1-0.5-0.2-0.8-0.2C338.8,322.9,338.5,322.9,338.2,322.8z"/>
	<path class="st8" d="M374,377.7c0.3-0.1,0.6-0.1,0.9-0.2c1-0.2,2,0.4,2.2,1.4c0,0.1,0,0.2,0,0.4c0,0.5,0.2,1,0.6,1.2
		c0.2,0.1,0.5,0.2,0.8,0.3c0.3,0.1,0.6,0.1,0.9,0.2c-0.3,0.1-0.6,0.1-0.9,0.2c-0.3,0.1-0.7,0-1-0.1c-0.7-0.3-1.1-1-1.1-1.7
		c0-0.5-0.3-0.9-0.7-1.2c-0.2-0.1-0.5-0.2-0.8-0.2C374.6,377.8,374.3,377.8,374,377.7z"/>
	<path class="st8" d="M356.4,348.2c0.3-0.1,0.6-0.1,0.9-0.2c0.3-0.1,0.7,0,1,0.1c0.7,0.3,1.2,0.9,1.2,1.7c0,0.5,0.2,1,0.6,1.2
		c0.2,0.1,0.5,0.2,0.8,0.3c0.3,0.1,0.6,0.1,0.9,0.2c-0.3,0.1-0.6,0.1-0.9,0.2c-0.3,0.1-0.7,0-1-0.1c-0.7-0.3-1.1-1-1.1-1.7
		c0-0.5-0.3-0.9-0.7-1.2c-0.2-0.1-0.5-0.2-0.8-0.2C357,348.3,356.6,348.3,356.4,348.2z"/>
	<path class="st8" d="M323.7,353.5c0.3-0.1,0.6-0.1,0.9-0.2c1-0.2,2,0.4,2.2,1.4c0,0.1,0,0.2,0,0.4c0,0.5,0.2,1,0.6,1.2
		c0.2,0.1,0.5,0.2,0.8,0.3c0.3,0.1,0.6,0.1,0.9,0.2c-0.3,0.1-0.6,0.1-0.9,0.2c-0.3,0.1-0.7,0-1-0.1c-0.7-0.3-1.1-1-1.1-1.7
		c0-0.5-0.3-0.9-0.7-1.2c-0.2-0.1-0.5-0.2-0.8-0.2C324.4,353.7,324,353.6,323.7,353.5z"/>
	<path class="st8" d="M371.4,323.5c0.3-0.1,0.6-0.1,0.9-0.2c1-0.2,2,0.4,2.2,1.4c0,0.1,0,0.2,0,0.4c0,0.5,0.2,1,0.6,1.2
		c0.2,0.1,0.5,0.2,0.8,0.3c0.3,0.1,0.6,0.1,0.9,0.2c-0.3,0.1-0.6,0.1-0.9,0.2c-0.3,0.1-0.7,0-1-0.1c-0.7-0.3-1.1-1-1.1-1.7
		c0-0.5-0.3-0.9-0.7-1.2c-0.2-0.1-0.5-0.2-0.8-0.2C372,323.6,371.7,323.6,371.4,323.5z"/>
	<path class="st8" d="M413,363.9c0.3-0.1,0.6-0.1,0.9-0.2c0.3-0.1,0.7,0,1,0.1c0.7,0.3,1.2,0.9,1.2,1.7c0,0.5,0.2,0.9,0.6,1.2
		c0.2,0.1,0.5,0.2,0.8,0.3c0.3,0.1,0.6,0.1,0.9,0.2c-0.3,0.1-0.6,0.1-0.9,0.2c-1,0.2-1.9-0.5-2.1-1.5c0-0.1,0-0.2,0-0.4
		c0-0.5-0.3-0.9-0.7-1.2c-0.2-0.1-0.5-0.2-0.8-0.2C413.7,364,413.4,364,413,363.9z"/>
	<path class="st8" d="M396.5,339.2c0.3-0.1,0.6-0.1,0.9-0.2c1-0.2,2,0.4,2.2,1.4c0,0.1,0,0.2,0,0.4c0,0.5,0.2,1,0.6,1.2
		c0.2,0.1,0.5,0.2,0.8,0.3c0.3,0.1,0.6,0.1,0.9,0.2c-0.3,0.1-0.6,0.1-0.9,0.2c-0.3,0.1-0.7,0-1-0.1c-0.7-0.3-1.1-1-1.1-1.7
		c0-0.5-0.3-0.9-0.7-1.2c-0.2-0.1-0.5-0.2-0.8-0.2C397.1,339.4,396.8,339.3,396.5,339.2z"/>
	<path class="st8" d="M431.7,375.2c0.3-0.1,0.6-0.1,0.9-0.2c1-0.2,2,0.4,2.2,1.4c0,0.1,0,0.2,0,0.4c0,0.5,0.2,1,0.6,1.2
		c0.2,0.1,0.5,0.2,0.8,0.3c0.3,0.1,0.6,0.1,0.9,0.2c-0.3,0.1-0.6,0.1-0.9,0.2c-0.3,0.1-0.7,0-1-0.1c-0.7-0.3-1.1-1-1.1-1.7
		c0-0.5-0.3-0.9-0.7-1.2c-0.2-0.1-0.5-0.2-0.8-0.2C432.3,375.3,432,375.3,431.7,375.2z"/>
	<path class="st8" d="M349,287.5c-0.1,0.3-0.3,0.5-0.5,0.8c-0.5,0.8-1.7,1.1-2.5,0.6c-0.1-0.1-0.2-0.2-0.3-0.3
		c-0.3-0.4-0.8-0.5-1.3-0.4c-0.3,0.1-0.5,0.2-0.7,0.4c-0.2,0.2-0.5,0.4-0.8,0.5c0.2-0.3,0.3-0.5,0.5-0.8c0.2-0.3,0.5-0.5,0.8-0.6
		c0.7-0.3,1.5-0.1,2,0.4c0.4,0.3,0.9,0.5,1.3,0.4c0.3-0.1,0.5-0.2,0.7-0.4C348.5,287.8,348.8,287.6,349,287.5z"/>
	<path class="st8" d="M336.9,267.2c-0.1,0.3-0.3,0.5-0.5,0.8c-0.5,0.8-1.7,1.1-2.5,0.6c-0.1-0.1-0.2-0.2-0.3-0.3
		c-0.3-0.4-0.8-0.5-1.3-0.4c-0.3,0.1-0.5,0.2-0.7,0.4c-0.2,0.2-0.5,0.4-0.8,0.5c0.2-0.3,0.3-0.5,0.5-0.8c0.2-0.3,0.5-0.5,0.8-0.6
		c0.7-0.3,1.5-0.1,2,0.4c0.4,0.3,0.9,0.5,1.3,0.4c0.3-0.1,0.5-0.2,0.7-0.4C336.4,267.5,336.7,267.4,336.9,267.2z"/>
	<path class="st8" d="M398,322.7c-0.2,0.3-0.3,0.5-0.5,0.8c-0.2,0.3-0.5,0.5-0.8,0.7c-0.7,0.3-1.5,0.2-2-0.4
		c-0.3-0.4-0.8-0.5-1.3-0.4c-0.3,0.1-0.5,0.2-0.7,0.4c-0.3,0.2-0.5,0.4-0.8,0.5c0.1-0.3,0.3-0.5,0.5-0.8c0.2-0.3,0.5-0.5,0.8-0.6
		c0.7-0.3,1.5-0.1,2,0.4c0.3,0.3,0.8,0.5,1.3,0.4c0.3-0.1,0.5-0.2,0.7-0.4C397.5,323.1,397.8,322.9,398,322.7z"/>
	<path class="st8" d="M367.5,257.1c-0.1,0.3-0.3,0.5-0.5,0.8c-0.2,0.3-0.5,0.5-0.8,0.7c-0.7,0.3-1.5,0.2-2-0.4
		c-0.3-0.4-0.8-0.5-1.3-0.4c-0.3,0.1-0.5,0.2-0.7,0.4c-0.3,0.2-0.5,0.4-0.8,0.5c0.1-0.3,0.3-0.5,0.5-0.8c0.2-0.3,0.5-0.5,0.8-0.6
		c0.7-0.3,1.5-0.1,2,0.4c0.4,0.4,0.9,0.5,1.4,0.4c0.3-0.1,0.5-0.2,0.7-0.4C367,257.4,367.2,257.2,367.5,257.1z"/>
	<path class="st8" d="M346.3,242.1c-0.1,0.3-0.3,0.5-0.5,0.8c-0.2,0.3-0.5,0.5-0.8,0.7c-0.7,0.3-1.5,0.2-2-0.4
		c-0.3-0.4-0.8-0.5-1.3-0.4c-0.3,0.1-0.5,0.2-0.7,0.4c-0.3,0.2-0.5,0.4-0.8,0.5c0.1-0.3,0.3-0.5,0.5-0.8c0.2-0.3,0.5-0.5,0.8-0.6
		c0.7-0.3,1.5-0.1,2,0.4c0.4,0.3,0.9,0.5,1.3,0.4c0.3-0.1,0.5-0.2,0.7-0.4C345.8,242.5,346,242.3,346.3,242.1z"/>
	<path class="st8" d="M366.3,276.1c0.1,0.3,0.1,0.6,0.2,0.9c0.1,0.3,0,0.7-0.1,1c-0.3,0.7-0.9,1.2-1.7,1.2c-0.5,0-1,0.2-1.2,0.6
		c-0.1,0.2-0.2,0.5-0.3,0.8c-0.1,0.3-0.1,0.6-0.2,0.9c-0.1-0.3-0.1-0.6-0.2-0.9c-0.1-0.3,0-0.7,0.1-1c0.3-0.7,1-1.1,1.7-1.1
		c0.5,0,0.9-0.3,1.2-0.7c0.1-0.2,0.2-0.5,0.2-0.8C366.1,276.7,366.2,276.4,366.3,276.1z"/>
	<path class="st8" d="M359.1,329.4c0.1,0.3,0.1,0.6,0.2,0.9c0.2,1-0.4,2-1.4,2.2c-0.1,0-0.2,0-0.4,0c-0.5,0-1,0.2-1.2,0.6
		c-0.1,0.2-0.2,0.5-0.3,0.8c-0.1,0.3-0.1,0.6-0.2,0.9c-0.1-0.3-0.1-0.6-0.2-0.9c-0.1-0.3,0-0.7,0.1-1c0.3-0.7,1-1.1,1.7-1.1
		c0.5,0,0.9-0.3,1.2-0.7c0.1-0.2,0.2-0.5,0.2-0.8C358.9,330,359,329.7,359.1,329.4z"/>
	<path class="st8" d="M429,354.1c0.1,0.3,0.1,0.6,0.2,0.9c0.2,1-0.4,2-1.4,2.2c-0.1,0-0.2,0-0.4,0c-0.5,0-1,0.2-1.2,0.6
		c-0.1,0.2-0.2,0.5-0.3,0.8c-0.1,0.3-0.1,0.6-0.2,0.9c-0.1-0.3-0.1-0.6-0.2-0.9c-0.1-0.3,0-0.7,0.1-1c0.3-0.7,1-1.1,1.7-1.1
		c0.5,0,0.9-0.3,1.2-0.7c0.1-0.2,0.2-0.5,0.2-0.8C428.9,354.7,428.9,354.4,429,354.1z"/>
	<path class="st8" d="M396.6,283.5c0.1,0.3,0.1,0.6,0.2,0.9c0.1,0.3,0,0.7-0.1,1c-0.3,0.7-0.9,1.2-1.7,1.2c-0.5,0-1,0.2-1.2,0.6
		c-0.1,0.2-0.2,0.5-0.3,0.8c-0.1,0.3-0.1,0.6-0.2,0.9c-0.1-0.3-0.1-0.6-0.2-0.9c-0.2-1,0.5-1.9,1.5-2.1c0.1,0,0.2,0,0.4,0
		c0.5,0,0.9-0.3,1.2-0.7c0.1-0.2,0.2-0.5,0.2-0.8C396.5,284.1,396.5,283.8,396.6,283.5z"/>
	<path class="st8" d="M396.6,369c0.1,0.3,0.1,0.6,0.2,0.9c0.2,1-0.4,2-1.4,2.2c-0.1,0-0.2,0-0.4,0c-0.5,0-1,0.2-1.2,0.6
		c-0.1,0.2-0.2,0.5-0.3,0.8c-0.1,0.3-0.1,0.6-0.2,0.9c-0.1-0.3-0.1-0.6-0.2-0.9c-0.1-0.3,0-0.7,0.1-1c0.3-0.7,1-1.1,1.7-1.1
		c0.5,0,0.9-0.3,1.2-0.7c0.1-0.2,0.2-0.5,0.2-0.8C396.5,369.6,396.5,369.3,396.6,369z"/>
	<path class="st8" d="M413,320c0.1,0.3,0.1,0.6,0.2,0.9c0.2,1-0.4,1.9-1.4,2.2c-0.1,0-0.3,0-0.4,0c-0.5,0-1,0.2-1.2,0.6
		c-0.1,0.2-0.2,0.5-0.3,0.8c-0.1,0.3-0.1,0.6-0.2,0.9c-0.1-0.3-0.1-0.6-0.2-0.9c-0.1-0.3,0-0.7,0.1-1c0.3-0.7,1-1.1,1.7-1.1
		c0.5,0,0.9-0.3,1.2-0.7c0.1-0.2,0.2-0.5,0.2-0.8C412.9,320.7,413,320.4,413,320z"/>
	<path class="st8" d="M329.7,331.3c0.1,0.3,0.1,0.6,0.2,0.9c0.2,1-0.4,1.9-1.4,2.2c-0.1,0-0.3,0-0.4,0c-0.5,0-1,0.2-1.2,0.6
		c-0.1,0.2-0.2,0.5-0.3,0.8c-0.1,0.3-0.1,0.6-0.2,0.9c-0.1-0.3-0.1-0.6-0.2-0.9c-0.1-0.3,0-0.7,0.1-1c0.3-0.7,1-1.1,1.7-1.1
		c0.5,0,0.9-0.3,1.2-0.7c0.1-0.2,0.2-0.5,0.2-0.8C329.6,331.9,329.6,331.6,329.7,331.3z"/>
	<path class="st8" d="M331.3,283.5c0.1,0.3,0.1,0.6,0.2,0.9c0.1,0.3,0.1,0.7-0.1,1c-0.3,0.7-0.9,1.2-1.7,1.2c-0.5,0-1,0.2-1.2,0.6
		c-0.1,0.2-0.2,0.5-0.3,0.8c-0.1,0.3-0.1,0.6-0.2,0.9c-0.1-0.3-0.1-0.6-0.2-0.9c-0.1-0.3,0-0.7,0.1-1c0.3-0.7,1-1.1,1.7-1.1
		c0.5,0,0.9-0.3,1.2-0.7c0.1-0.2,0.2-0.5,0.2-0.8C331.2,284.1,331.2,283.8,331.3,283.5z"/>
	<path class="st8" d="M348.8,252.4c0.1,0.3,0.1,0.6,0.2,0.9c0.1,0.3,0,0.7-0.1,1c-0.3,0.7-0.9,1.2-1.7,1.2c-0.5,0-1,0.2-1.2,0.7
		c-0.1,0.2-0.2,0.5-0.3,0.8c-0.1,0.3-0.1,0.6-0.2,0.9c-0.1-0.3-0.1-0.6-0.2-0.9c-0.1-0.3,0-0.7,0.1-1c0.3-0.7,1-1.1,1.7-1.1
		c0.5,0,0.9-0.3,1.2-0.7c0.1-0.2,0.2-0.5,0.2-0.8C348.6,253,348.7,252.7,348.8,252.4z"/>
	<path class="st8" d="M344.1,300.5c0.1,0.3,0.1,0.6,0.2,0.9c0.2,1-0.4,2-1.4,2.2c-0.1,0-0.2,0-0.4,0c-0.5,0-1,0.2-1.2,0.6
		c-0.1,0.2-0.2,0.5-0.3,0.8c-0.1,0.3-0.1,0.6-0.2,0.9c-0.1-0.3-0.1-0.6-0.2-0.9c-0.1-0.3,0-0.7,0.1-1c0.3-0.7,1-1.1,1.7-1.1
		c0.5,0,0.9-0.3,1.2-0.7c0.1-0.2,0.2-0.5,0.2-0.8C343.9,301.1,344,300.8,344.1,300.5z"/>
	<path class="st8" d="M386.1,306.9c0.1,0.3,0.1,0.6,0.2,0.9c0.2,1-0.4,2-1.4,2.2c-0.1,0-0.2,0-0.4,0c-0.5,0-1,0.2-1.2,0.6
		c-0.1,0.2-0.2,0.5-0.3,0.8c-0.1,0.3-0.1,0.6-0.2,0.9c-0.1-0.3-0.1-0.6-0.2-0.9c-0.1-0.3,0-0.7,0.1-1c0.3-0.7,1-1.1,1.7-1.1
		c0.5,0,0.9-0.3,1.2-0.7c0.1-0.2,0.2-0.5,0.2-0.8C386,307.5,386,307.2,386.1,306.9z"/>
	<path class="st8" d="M347.3,360.9c0.1,0.3,0.1,0.6,0.2,0.9c0.2,1-0.4,1.9-1.4,2.2c-0.1,0-0.3,0-0.4,0c-0.5,0-1,0.2-1.2,0.6
		c-0.1,0.2-0.2,0.5-0.3,0.7c0,0.3-0.1,0.6-0.2,0.9c-0.1-0.3-0.1-0.6-0.2-0.9c-0.1-0.3,0-0.7,0.1-1c0.3-0.7,1-1.1,1.7-1.1
		c0.5,0,0.9-0.3,1.2-0.7c0.1-0.2,0.2-0.5,0.2-0.8C347.1,361.5,347.2,361.2,347.3,360.9z"/>
	<path class="st8" d="M378.9,291.7c0.2-0.3,0.4-0.5,0.5-0.8c0.2-0.3,0.4-0.5,0.8-0.7c0.7-0.3,1.5-0.2,2,0.4c0.3,0.4,0.8,0.5,1.3,0.4
		c0.3-0.1,0.5-0.2,0.7-0.4c0.3-0.2,0.5-0.4,0.8-0.5c-0.2,0.3-0.4,0.5-0.5,0.8c-0.2,0.3-0.5,0.5-0.8,0.6c-0.7,0.3-1.5,0.1-2-0.4
		c-0.4-0.3-0.8-0.5-1.3-0.4c-0.3,0.1-0.5,0.2-0.7,0.4C379.4,291.3,379.2,291.5,378.9,291.7z"/>
	<path class="st8" d="M354.4,313.9c0.1-0.3,0.3-0.5,0.5-0.8c0.5-0.8,1.7-1.1,2.5-0.6c0.1,0.1,0.2,0.2,0.3,0.3
		c0.3,0.4,0.8,0.5,1.3,0.4c0.3-0.1,0.5-0.2,0.7-0.4c0.2-0.2,0.5-0.4,0.8-0.5c-0.2,0.3-0.3,0.5-0.5,0.8c-0.6,0.8-1.7,1-2.5,0.5
		c-0.1-0.1-0.2-0.2-0.3-0.2c-0.3-0.3-0.8-0.5-1.3-0.4c-0.3,0.1-0.5,0.2-0.7,0.4C354.9,313.5,354.6,313.7,354.4,313.9z"/>
	<path class="st8" d="M337.8,346.6c0.2-0.3,0.4-0.5,0.5-0.8c0.5-0.8,1.7-1.1,2.5-0.6c0.1,0.1,0.2,0.2,0.3,0.3
		c0.3,0.4,0.8,0.5,1.3,0.4c0.3-0.1,0.5-0.2,0.7-0.4c0.2-0.2,0.5-0.4,0.8-0.5c-0.2,0.3-0.3,0.5-0.5,0.8c-0.6,0.8-1.7,1-2.5,0.5
		c-0.1-0.1-0.2-0.2-0.3-0.3c-0.4-0.3-0.9-0.5-1.3-0.4c-0.3,0.1-0.5,0.2-0.7,0.4C338.3,346.3,338,346.4,337.8,346.6z"/>
	<path class="st8" d="M344.9,380.6c0.2-0.3,0.4-0.5,0.5-0.8c0.2-0.3,0.4-0.5,0.8-0.7c0.7-0.3,1.5-0.2,2,0.4c0.3,0.4,0.8,0.5,1.3,0.4
		c0.3-0.1,0.5-0.2,0.7-0.4c0.3-0.2,0.5-0.4,0.8-0.5c-0.2,0.3-0.3,0.5-0.5,0.8c-0.2,0.3-0.5,0.5-0.8,0.6c-0.7,0.3-1.5,0.1-2-0.4
		c-0.4-0.3-0.8-0.5-1.3-0.4c-0.3,0.1-0.5,0.2-0.7,0.4C345.5,380.3,345.2,380.4,344.9,380.6z"/>
	<path class="st8" d="M377.1,343.2c0.1-0.3,0.3-0.5,0.5-0.8c0.2-0.3,0.5-0.5,0.8-0.7c0.7-0.3,1.5-0.2,2,0.4c0.3,0.4,0.8,0.5,1.3,0.4
		c0.3-0.1,0.5-0.2,0.7-0.4c0.3-0.2,0.5-0.4,0.8-0.5c-0.2,0.3-0.3,0.5-0.5,0.8c-0.2,0.3-0.5,0.5-0.8,0.6c-0.7,0.3-1.5,0.1-2-0.4
		c-0.4-0.3-0.9-0.5-1.3-0.4c-0.3,0.1-0.5,0.2-0.7,0.4C377.6,342.9,377.4,343.1,377.1,343.2z"/>
	<path class="st8" d="M399.2,356.8c0.1-0.3,0.3-0.5,0.5-0.8c0.2-0.3,0.5-0.5,0.8-0.7c0.7-0.3,1.5-0.2,2,0.4c0.3,0.4,0.8,0.5,1.3,0.4
		c0.3-0.1,0.5-0.2,0.7-0.4c0.3-0.2,0.5-0.4,0.8-0.5c-0.1,0.3-0.3,0.5-0.5,0.8c-0.2,0.3-0.5,0.5-0.8,0.6c-0.7,0.3-1.5,0.1-2-0.4
		c-0.4-0.3-0.9-0.5-1.3-0.4c-0.3,0.1-0.5,0.2-0.7,0.4C399.7,356.4,399.5,356.6,399.2,356.8z"/>
	<path class="st8" d="M362,367c0.1-0.3,0.3-0.5,0.5-0.8c0.2-0.3,0.4-0.5,0.8-0.7c0.7-0.3,1.5-0.2,2,0.4c0.3,0.4,0.8,0.5,1.3,0.4
		c0.3-0.1,0.5-0.2,0.7-0.4c0.3-0.2,0.5-0.4,0.8-0.5c-0.2,0.3-0.3,0.5-0.5,0.8c-0.2,0.3-0.5,0.5-0.8,0.6c-0.7,0.3-1.5,0.1-2-0.4
		c-0.4-0.3-0.9-0.5-1.3-0.4c-0.3,0.1-0.5,0.2-0.7,0.4C362.5,366.7,362.3,366.9,362,367z"/>
	<path class="st8" d="M410,380.6c0.2-0.3,0.3-0.5,0.5-0.8c0.2-0.3,0.4-0.5,0.8-0.7c0.7-0.3,1.5-0.2,2,0.4c0.3,0.4,0.8,0.5,1.3,0.4
		c0.3-0.1,0.5-0.2,0.7-0.4c0.3-0.2,0.5-0.4,0.8-0.5c-0.1,0.3-0.3,0.5-0.5,0.8c-0.2,0.3-0.5,0.5-0.8,0.6c-0.7,0.3-1.5,0.1-2-0.4
		c-0.4-0.3-0.8-0.5-1.3-0.4c-0.3,0.1-0.5,0.2-0.7,0.4C410.5,380.3,410.3,380.4,410,380.6z"/>
	<path class="st8" d="M415.4,344c0.1-0.3,0.3-0.5,0.5-0.8c0.2-0.3,0.5-0.5,0.8-0.7c0.7-0.3,1.5-0.2,2,0.4c0.3,0.4,0.8,0.5,1.3,0.4
		c0.3-0.1,0.5-0.2,0.7-0.4c0.3-0.2,0.5-0.4,0.8-0.5c-0.1,0.3-0.3,0.5-0.5,0.8c-0.2,0.3-0.5,0.5-0.8,0.6c-0.7,0.3-1.5,0.1-2-0.4
		c-0.4-0.3-0.8-0.5-1.3-0.4c-0.3,0.1-0.5,0.2-0.7,0.4C415.9,343.7,415.7,343.9,415.4,344z"/>
	<path class="st8" d="M327.8,371.7c0.2-0.3,0.3-0.5,0.5-0.8c0.2-0.3,0.5-0.5,0.8-0.7c0.7-0.3,1.5-0.2,2,0.4c0.3,0.4,0.8,0.5,1.3,0.4
		c0.3-0.1,0.5-0.2,0.7-0.4c0.3-0.2,0.5-0.4,0.8-0.5c-0.1,0.3-0.3,0.5-0.5,0.8c-0.2,0.3-0.5,0.5-0.8,0.6c-0.7,0.3-1.5,0.1-2-0.4
		c-0.4-0.3-0.9-0.5-1.3-0.3c-0.3,0.1-0.5,0.2-0.7,0.4C328.3,371.4,328,371.6,327.8,371.7z"/>
	<path class="st8" d="M325,314.6c0.1-0.3,0.3-0.5,0.5-0.8c0.2-0.3,0.5-0.5,0.8-0.7c0.7-0.3,1.5-0.2,2,0.4c0.3,0.4,0.8,0.5,1.3,0.4
		c0.3-0.1,0.5-0.2,0.7-0.4c0.3-0.2,0.5-0.4,0.8-0.5c-0.2,0.3-0.3,0.5-0.5,0.8c-0.2,0.3-0.5,0.5-0.8,0.6c-0.7,0.3-1.5,0.1-2-0.4
		c-0.3-0.3-0.8-0.5-1.3-0.4c-0.3,0.1-0.5,0.2-0.7,0.4C325.5,314.3,325.3,314.5,325,314.6z"/>
	<path class="st5" d="M357.6,238.5c-0.4,1.9-8.8,14.2-17.3,14.1c-2.8-0.1-3.2-15.1-3.2-15.1l-0.3-1.1l-4-15.5l17.9-12.4l2.6-1.6
		c0,0,0.8,4.3,1.8,9.7c0,0.3,0.1,0.5,0.1,0.8s0.1,0.6,0.2,0.9c0.2,0.8,0.3,1.6,0.5,2.4c0.1,0.6,0.2,1.2,0.3,1.9s0.2,1.3,0.3,2
		C357.2,229.1,357.6,233.8,357.6,238.5z"/>
	<path class="st3" d="M355.2,216.5c-2.9,9-9.6,16.2-18.3,19.8l-4-15.5l17.9-12.4l2.6-1.6C353.4,206.8,354.2,211.1,355.2,216.5z"/>
	<path class="st5" d="M310.9,197.9c-0.7,28.1,16,31.7,22,31.8c5.5,0.1,24.2-0.1,27.9-27.9s-9.2-37-21.7-38S311.6,169.8,310.9,197.9z
		"/>
	<path class="st3" d="M315.1,189.4c0.7-0.1,1.2-0.3,1.9-0.5c0.7-0.1,1.3-0.4,1.8-0.9c0.3-0.4,0.2-0.9,0-1.2
		c-0.7-0.6-1.6-0.8-2.5-0.5c-0.9,0.2-1.7,0.7-2.2,1.4c-0.3,0.5-0.2,1.2,0.3,1.5C314.6,189.3,314.9,189.4,315.1,189.4z"/>
	<path class="st3" d="M333.9,193.5c-0.6-0.1-1.3-0.2-1.9-0.3c-0.7,0-1.3-0.3-1.9-0.7c-0.3-0.3-0.3-0.8-0.1-1.2
		c0.6-0.7,1.5-0.9,2.4-0.7c0.9,0.1,1.7,0.5,2.3,1.2c0.4,0.5,0.3,1.1-0.1,1.5C334.4,193.4,334.2,193.5,333.9,193.5z"/>
	<path class="st3" d="M319.3,198.5c0-0.1-0.1,0.1-0.1,0.2c0.2,1.9,0.1,4.1-1.6,4.9c-0.1,0,0,0.1,0,0.1
		C319.6,203.2,319.8,200.3,319.3,198.5z"/>
	<path class="st3" d="M317.4,196.6c-3.1,0-2.9,6.1,0,6.2S320,196.6,317.4,196.6z"/>
	<path class="st3" d="M316.2,197.1c-0.5,0.3-0.9,0.9-1.5,1s-1.2-0.6-1.6-1.2c0-0.1-0.1,0-0.1,0.1c0,1.2,0.4,2.4,1.6,2.6s1.8-0.9,2-2
		C316.5,197.3,316.4,196.9,316.2,197.1z"/>
	<path class="st3" d="M331.8,214.8c-0.5,0.4-1,1-1.6,1.1c-0.7,0-1.4-0.2-2-0.6c0,0-0.1,0-0.1,0c0,0,0,0,0,0.1
		c0.5,0.8,1.5,1.2,2.4,1.1c0.8-0.2,1.4-0.8,1.6-1.6C332,214.8,331.9,214.8,331.8,214.8z"/>
	<path class="st3" d="M322.3,207.1c0,0-0.2,2.9-0.1,4.2c2.6-0.1,5.2,0.1,7.8,0.7c0.6,0.2,0.6-0.3-0.1-0.7c-2-1.1-4.3-1.5-6.6-1.2
		c-0.1-0.4,0.4-4.4,0.2-4.4c-1,0.2-2,0.4-3,0.9c0.3-6,1.6-11.8,1.8-17.8c0-0.1-0.1-0.2-0.2-0.2c-0.1,0-0.2,0-0.2,0.1
		c-1.8,6.1-2.3,12.9-2.7,19.1C319,208.6,321.7,207.4,322.3,207.1z"/>
	<path class="st3" d="M335.6,198.6c-1.1-0.4-2.4-0.5-3.5-0.3c-0.6,0.1-1.2,0.4-1.8,0.8c-0.5,0.4-1,0.9-1.3,1.5l-0.6,1.1l1.2-0.1
		c0.9-0.1,1.7-0.1,2.6,0c0.9,0.1,1.7,0.4,2.5,0.9c-0.5-0.9-1.3-1.5-2.3-1.8c-0.9-0.3-1.9-0.4-2.9-0.3l0.6,1c0.5-0.9,1.3-1.5,2.3-1.9
		C333.4,199,334.5,198.7,335.6,198.6z"/>
	<path class="st3" d="M332.1,203.6c-0.9-0.2-1.8-0.5-2.6-1c-0.2-0.1-0.9-0.7-0.9-0.8c0.1-0.5,0.3-0.9,0.5-1.3
		c-0.3,0.4-0.6,0.8-0.8,1.3c0.1,0.5,0.5,1,0.9,1.3C330.2,203.4,331.2,203.6,332.1,203.6z"/>
	<path class="st3" d="M325.5,211.1c0,0,1.7,2.5,3.7,2.8c2.3,0.4,2.6-1.7,0-2.9C327.9,210.4,325.5,211.1,325.5,211.1z"/>
	<path class="st9" d="M329.2,214c-0.9-0.2-1.7-0.6-2.3-1.2c0.5-0.7,1.6-1.5,4-0.2C331.3,213.4,330.7,214.2,329.2,214z"/>
	<path class="st3" d="M360.5,202.4c-4.6,0.6-6.2-9.1-6.2-9.1s-9.4,0.5-13.2-12.9c0.5,4,2.1,7.9,4.7,11c0,0-16.7-1-24.4-14.5
		c0,0,3.1,6.9,5.9,9.3c0,0-7.1-1.6-10.7-7.1c0,0-2.5,8.2-4.6,10.5c0,0-0.7-29.1,26.4-27.3c0,0,16.9,0.3,23.6,13.4
		S360.5,202.4,360.5,202.4z"/>
	<path class="st5" d="M356.2,203.8c0,0,5.6-9.1,9.7-7.2s0.3,14.9-4.3,16.9c-2.3,1.2-5.2,0.3-6.4-2c0-0.1-0.1-0.1-0.1-0.2
		L356.2,203.8z"/>
	<path class="st3" d="M364.7,200.3c0.1,0,0.1,0.1,0,0.1c-3.2,1.5-4.7,4.6-5.7,7.9c0.9-1.3,2.2-2,3.9-1c0.1,0.1,0,0.2-0.1,0.2
		c-1.2-0.3-2.5,0.2-3.1,1.2c-0.6,0.8-1,1.7-1.4,2.7c-0.1,0.3-0.7,0.2-0.6-0.2c0,0,0-0.1,0-0.1C357.4,207,360.3,201,364.7,200.3z"/>
	<path class="st8" d="M359,212.1c0,0.7,0.7,1.3,1.4,1.2c0.7,0,1.3-0.7,1.2-1.4c0-0.7-0.7-1.3-1.4-1.2c0,0,0,0,0,0
		C359.5,210.7,359,211.3,359,212.1C359,212.1,359,212.1,359,212.1z"/>
	<path class="st8" d="M362.1,209.9c0,0.5,0.4,0.8,0.9,0.8c0.5,0,0.8-0.4,0.8-0.9c0-0.5-0.4-0.8-0.9-0.8c0,0,0,0,0,0
		C362.5,209,362.1,209.4,362.1,209.9C362.1,209.9,362.1,209.9,362.1,209.9z"/>
	
		<rect x="261.6" y="265.6" transform="matrix(0.9741 -0.2263 0.2263 0.9741 -58.3414 68.3899)" class="st2" width="14.9" height="46.2"/>
	<path class="st0" d="M235.7,145.1c-33.9,7.9-55,41.7-47.1,75.6s41.7,55,75.6,47.1c33.9-7.9,54.9-41.7,47.1-75.6
		C303.5,158.4,269.7,137.3,235.7,145.1C235.8,145.1,235.8,145.1,235.7,145.1z M261.3,255c-26.8,6.2-53.5-10.4-59.7-37.2
		c-6.2-26.8,10.4-53.5,37.2-59.7s53.5,10.4,59.7,37.2c0,0,0,0,0,0C304.7,222,288,248.8,261.3,255z"/>
	<path class="st3" d="M266.4,299l9.7-2.3c3.4-0.8,6.7,1.3,7.5,4.7l12.5,53.6c0.8,3.4-1.3,6.7-4.7,7.5l-9.7,2.3
		c-3.4,0.8-6.7-1.3-7.5-4.7l-12.5-53.6C260.9,303.1,263,299.8,266.4,299z"/>
	<g class="st10">
		<path class="st8" d="M298.5,195.3c6.2,26.8-10.5,53.5-37.2,59.7s-53.5-10.5-59.7-37.2c-6.2-26.8,10.5-53.5,37.2-59.7
			C265.5,151.8,292.2,168.5,298.5,195.3C298.5,195.2,298.5,195.3,298.5,195.3z"/>
		<path class="st2" d="M299.7,209.3c-1.5,27.3-24.7,48.2-52,46.9L299.7,209.3z"/>
		<path class="st2" d="M276.8,164.6l-71.2,64.3c-1.8-3.5-3.1-7.3-4-11.1c-1-4.4-1.5-8.9-1.2-13.5l52.6-47.5
			C261.4,157.3,269.6,160,276.8,164.6z"/>
		<path class="st2" d="M297.1,190.5l-67.9,61.2c-3-1.4-5.8-3-8.4-4.9l72.3-65.2C294.7,184.4,296.1,187.4,297.1,190.5z"/>
		<path class="st2" d="M282.3,168.7L209,234.8c-0.3-0.5-0.7-1-1-1.5l72.8-65.7C281.3,167.9,281.8,168.3,282.3,168.7z"/>
		<path class="st2" d="M236.3,158.7L203.8,188c0.6-1.4,1.2-2.8,1.9-4.1l26.4-23.9C233.5,159.6,234.9,159.1,236.3,158.7z"/>
	</g>
	<path class="st8" d="M214.7,215.1c0-0.1,0-0.1,0-0.2c-0.2-1,0.1,0.9,0,0.3s-0.2-1.5-0.3-2.3c-0.2-2.7-0.2-5.4,0-8.2
		c0-0.4,0.1-0.8,0.1-1.1c0-0.1-0.1,0.9,0,0.1l0.1-0.7c0.1-0.9,0.3-1.8,0.4-2.7c0.4-2,0.9-3.9,1.5-5.8c0.1-0.4,0.3-0.9,0.5-1.4
		c0.2-0.6-0.3,0.7,0.1-0.1l0.3-0.8c0.4-1,0.9-2,1.4-3s1.1-2.1,1.8-3.1c0.3-0.5,0.6-0.9,0.9-1.4c0.5-0.8-0.3,0.3,0.2-0.2l0.6-0.8
		c1.8-2.3,3.9-4.4,6.1-6.3c0,0,0.5-0.4,0.1-0.1s0.2-0.1,0.2-0.2l1-0.8c0.7-0.5,1.4-1,2.1-1.4c1.5-1,3-1.9,4.5-2.7
		c1.8-1.1,2.3-3.4,1.2-5.2c-1.1-1.8-3.4-2.3-5.2-1.2c-9.9,5.3-18,13.6-22.1,24.1c-2.8,7.1-3.9,14.6-3.4,22.2c0.1,1.7,0.3,3.3,0.6,5
		c0.6,2,2.7,3.1,4.7,2.5C214,219.1,215.1,217,214.7,215.1L214.7,215.1z"/>
	<path class="st8" d="M218,225.8c0.6,1.9-0.5,4-2.5,4.6c-1.9,0.6-4-0.5-4.6-2.5c-0.6-1.9,0.5-4,2.5-4.6
		C215.4,222.7,217.4,223.8,218,225.8C218,225.8,218,225.8,218,225.8z"/>
	<path class="st5" d="M377.1,257.3c9,32.5,13.3,65.2,8.3,82.1c-3.2,10.7-10.9,18-15.7,20.4c-11.4,5.6-49.3-2.4-73.9-7.3
		c-6.1-1.2,8.2-50,14.3-47.5c9,3.8,36.5,9,37.3,9.2c1.6,0.6,5-34.8,7.4-55.5C358.1,229.9,371.9,238.5,377.1,257.3z"/>
	<path class="st5" d="M248.4,295.7c-2.7,4.4,0.8,8.4,0.8,8.4c-2.3,1.1-4.1,3-5.1,5.4c-1.6,4.2,4.3,8.6,4.3,8.6
		c-2.1,1.7-3.7,4-4.5,6.5c-1.1,4.2,4.2,9.4,4.2,9.4c-1.1,2.6-1.2,5.5-0.3,8.2c2.6,7.1,14,9.4,21.2,11s29.1-0.8,33.3-0.8l10.4-46.1
		c0,0-30.3-16.1-39-16.8C266.2,289,251.4,290.8,248.4,295.7z"/>
	<path class="st3" d="M249.7,303.4c8-1.3,15.9-0.2,23.8,0.4c0.1,0,0.1,0.1,0.1,0.1c0,0.1-0.1,0.1-0.1,0.1
		c-7.9-0.7-15.9,0.1-23.8-0.3c-0.1,0-0.2-0.1-0.2-0.2C249.6,303.5,249.6,303.4,249.7,303.4z"/>
	<path class="st3" d="M248.7,317.4c1.8-0.1,3.7,0,5.5,0.4c1.9,0.3,3.9,0.5,5.8,0.9c3.8,0.7,7.7,1.4,11.5,2.2c0.2,0,0.2,0.3,0,0.3
		c-3.8-0.6-7.7-1.2-11.5-1.7c-1.9-0.2-3.9-0.5-5.8-0.7c-1.8-0.1-3.7-0.4-5.4-0.8c-0.1-0.1-0.2-0.2-0.2-0.4
		C248.5,317.5,248.6,317.5,248.7,317.4z"/>
	<path class="st3" d="M248.2,334c1.6-0.3,3.4,0.3,4.9,0.6c1.8,0.3,3.5,0.6,5.2,1c3.5,0.6,7,1.2,10.5,1.7c0.2,0,0.1,0.3,0,0.3
		c-3.6-0.5-7.2-0.9-10.7-1.4c-1.8-0.3-3.5-0.5-5.3-0.8c-1.5-0.2-3.4-0.4-4.7-1.1C248.2,334.2,248.1,334.1,248.2,334
		C248.2,334,248.2,334,248.2,334z"/>
	<path class="st3" d="M258.3,290.9c-3.6,0.5-7.8,1.3-10.1,4.4c-1.1,1.3-1.6,3-1.5,4.7c0.2,1.6,1,3,2.2,4l0,0c-3,1-5.1,3.5-5.5,6.6
		c-0.1,1.5,0.4,3,1.4,4.2c0.5,0.6,1.1,1.1,1.6,1.6s1.2,1,1.7,1.5c-0.6,0.5-1.2,1-1.7,1.6c-0.6,0.6-1.1,1.2-1.6,1.9
		c-1,1.4-1.5,3-1.6,4.6c0.1,1.7,0.7,3.3,1.7,4.6c0.8,1.4,2,2.5,3.3,3.3c0,0,0.1,0,0.1,0c0,0,0-0.1,0-0.1c-1.1-1-2-2.1-2.7-3.4
		c-0.9-1.4-1.3-2.9-1.4-4.5c0.1-1.5,0.6-3,1.5-4.3c0.4-0.7,0.9-1.4,1.4-2c0.5-0.5,1-1.1,1.4-1.7c0,0-1.2-1.3-1.6-1.8
		s-0.8-1.1-1.2-1.7c-0.8-1.1-1.2-2.5-1-3.9c0.2-1.3,0.8-2.5,1.7-3.4c0.8-1,1.9-1.8,2.8-2.8c0.1-0.1,0.1-0.2,0.1-0.4
		c-2-3.1-1.8-6.1,0.4-8.4c1.1-1.1,2.4-2,3.8-2.7c1.6-0.7,3.3-1.3,5-1.8C258.5,291.1,258.4,290.9,258.3,290.9z"/>
	<path class="st3" d="M324.6,358.1c-2.1-0.7-4.4-1-6.6-1.5s-4.4-0.9-6.6-1.4s-4.5-0.9-6.7-1.3s-4.3-0.9-6.5-1.1
		c-2.1-0.2-4.2-0.2-6.3,0.1c-2.1,0.2-4.2,0.4-6.4,0.5c-4.3,0.2-8.6,0.1-12.9-0.3c-4.8-0.4-9.6-1.3-14.3-2.5c-0.1,0-0.1,0.1,0,0.1
		c8.1,2.7,16.7,4.1,25.2,4c2.1,0,4.3-0.1,6.4-0.3c2.1-0.3,4.2-0.5,6.4-0.5c2.3,0.1,4.5,0.5,6.7,1c2.2,0.4,4.4,0.8,6.6,1.2
		c2.5,0.4,5,0.9,7.5,1.3s5,1,7.5,1.1C324.8,358.5,324.8,358.1,324.6,358.1z"/>
	<path class="st3" d="M355.7,316.2c-3.2-1.1-6.6-1.8-9.9-2.6s-6.6-1.5-9.9-2.3c-6.3-1.4-12.7-2.6-19-4.4c-1.6-0.5-3.3-1-4.9-1.5
		c-0.8-0.3-1.6-0.6-2.4-1s-1.7-0.6-2.5-1c-0.1-0.1-0.2,0.1-0.1,0.1c0.6,0.4,1.2,0.9,1.9,1.2s1.4,0.8,2.2,1.1
		c1.4,0.6,2.7,1.2,4.1,1.6c2.9,1,6,1.7,9,2.4c6.6,1.5,13.2,3,19.8,4.4c1.9,0.4,3.7,0.8,5.6,1.2s3.9,0.8,5.9,1c0.1,0,0.2,0,0.2-0.1
		C355.8,316.3,355.8,316.2,355.7,316.2z"/>
	<path class="st6" d="M345.3,304.1l45.7,6.2c0,0-8.4-47.5-17.3-63.3c-8.8-15.5-18.5-5.3-22.1,13.5
		C347.5,281.4,345.3,304.1,345.3,304.1z"/>
	<path class="st3" d="M387.6,303.4c-1.3-0.3-2.6-0.5-3.9-0.8s-2.5-0.5-3.8-0.7c-2.6-0.4-5.1-0.8-7.7-1.1c-5.1-0.7-10.1-1.5-15.3-2
		c-2.9-0.3-5.8-0.8-8.7-1c0,0-0.1,0-0.1,0.1c0,0,0,0.1,0.1,0.1c5,1.2,10.2,2.1,15.3,2.9s10.2,1.6,15.3,2.2c1.4,0.1,2.9,0.3,4.3,0.4
		s3,0.2,4.4,0.2c0.1,0,0.2-0.1,0.2-0.2C387.7,303.5,387.7,303.4,387.6,303.4z"/>
</g>
<g id="freepik--speech-bubble--inject-55">
	<path class="st8" d="M412.6,130.9c-1.7,16.8-16.8,28.9-33.5,27.2c-6.5-0.7-12.6-3.4-17.5-7.9l-15.3,2.3l7.6-13.2
		c-6.4-15.6,1.1-33.4,16.7-39.8s33.4,1.1,39.8,16.7C412.5,120.8,413.2,125.9,412.6,130.9L412.6,130.9z"/>
	<path class="st3" d="M412.6,130.9c-0.6,5.6-2.7,11-6.2,15.5c-1.7,2.3-3.7,4.3-6,5.9c-4.5,3.4-9.9,5.5-15.6,6.1
		c-1.4,0.1-2.8,0.2-4.2,0.1c-1.4,0-2.8-0.2-4.2-0.4c-5.6-1-10.9-3.6-15.1-7.4l0.4,0.1l-15.3,2.3l-1.1,0.2l0.6-1l7.6-13.2v0.5
		c-6.4-15.8,1.2-33.8,17-40.3c6.8-2.8,14.3-3,21.3-0.7c4.4,1.5,8.4,4,11.8,7.2C410.3,112.2,413.6,121.5,412.6,130.9z M412.6,130.9
		c1.7-16.6-10.3-31.4-26.9-33.2c-2.6-0.3-5.2-0.2-7.7,0.2c-4.5,0.7-8.8,2.4-12.6,5c-3.7,2.6-6.9,6-9.1,10c-2.3,4-3.6,8.4-3.9,12.9
		c-0.3,4.5,0.5,9.1,2.1,13.3l0.1,0.3l-0.1,0.3l-7.7,13.2l-0.5-0.8l15.3-2.1h0.2l0.1,0.1c4.1,3.8,9.1,6.4,14.6,7.5
		c1.4,0.3,2.7,0.5,4.1,0.5c1.4,0.1,2.8,0.1,4.2,0c2.8-0.2,5.5-0.8,8.1-1.8c2.6-1,5.1-2.3,7.4-4c1.1-0.8,2.2-1.7,3.2-2.7
		c1-1,1.9-2,2.8-3.1C409.9,141.9,412,136.6,412.6,130.9z"/>
	<path class="st4" d="M367.3,142c-0.1-1.7,1.2-3.1,2.9-3.1c0,0,0.1,0,0.1,0c1.7,0,3.1,1.4,3.1,3.1c0,1.7-1.4,3.1-3.1,3.1
		c-1.7,0-3-1.3-3-3C367.3,142.1,367.3,142,367.3,142z M368.6,134.8l-0.7-24.3h4.9l-0.7,24.3L368.6,134.8z"/>
	<path class="st4" d="M379,142c-0.1-1.7,1.2-3.1,2.9-3.1c0,0,0.1,0,0.1,0c1.7,0,3.1,1.4,3.1,3.1c0,1.7-1.4,3.1-3.1,3.1
		c-1.7,0-3-1.3-3-3C379,142.1,379,142,379,142z M380.3,134.8l-0.7-24.3h4.9l-0.7,24.3H380.3z"/>
	<path class="st4" d="M390.6,142c-0.1-1.7,1.2-3.1,2.9-3.1c0,0,0.1,0,0.1,0c1.7,0,3.1,1.4,3.1,3.1c0,1.7-1.4,3.1-3.1,3.1
		c-1.7,0-3-1.3-3-3C390.6,142.1,390.6,142,390.6,142z M391.9,134.8l-0.7-24.3h4.9l-0.7,24.3H391.9z"/>
</g>
</svg>
